<svg width="1920" height="898" fill="none" xmlns="http://www.w3.org/2000/svg"><mask id="a" style="mask-type:alpha" maskUnits="userSpaceOnUse" x="0" y="0" width="1920" height="898"><path fill="#E3F1E9" d="M0 0h1920v898H0z"/></mask><g mask="url(#a)"><path d="M340.729 720.338c.235-5.471 1.45-12.527 7.52-14.39 4.12-1.259 8.633-.02 12.846-.032 8.104-.026 15.429-5.277 19.838-11.769 4.533-6.666 6.631-15.085 5.632-23.104-.484-3.94-1.745-7.788-3.817-11.178-2.078-3.404-4.957-6.395-7.89-9.079-6.544-5.968-14.336-10.682-22.579-13.904-8.101-3.163-16.974-5.032-25.697-4.118-4.026.428-8.067 1.454-11.704 3.277-4.369 2.196-7.948 5.729-10.643 9.768-5.509 8.265-7.698 18.814-7.068 28.652.645 9.808 5.835 18.546 14.586 23.198 4.571 2.43 9.608 3.462 14.645 4.42 2.551.489 5.314 1.146 6.874 3.413 1.54 2.232 1.507 5.009 1.202 7.589-.275 2.224-.792 4.413-1.052 6.632-.05.395.157.697.543.816 1.759.512 3.43 1.252 5.289 1.344.885.036.798-1.343-.087-1.379-1.706-.077-3.312-.846-4.934-1.314.183.277.361.54.543.817.48-4.137 2.068-8.558.823-12.707-1.556-5.158-6.297-6.066-10.973-6.929-4.979-.929-9.921-2.346-14.234-5.092-4.116-2.622-7.429-6.399-9.411-10.856-4.068-9.127-3.01-20.504.345-29.702 1.717-4.703 4.239-9.162 7.774-12.729 3.308-3.336 7.37-5.538 11.891-6.781 8.3-2.289 17.229-1.319 25.385 1.092 8.541 2.531 16.654 6.776 23.674 12.241 6.278 4.894 12.283 10.925 14.399 18.813 2.106 7.858.72 16.535-3.19 23.612-3.807 6.869-10.796 12.956-18.941 13.506-4.164.284-8.335-.845-12.499-.289-4.54.615-7.828 3.837-9.248 8.12-.863 2.608-1.119 5.361-1.226 8.089-.036.935 1.348.838 1.384-.047Z" fill="#577575"/><path d="M338.909 715.898c.439-3.192.606-6.435 1.332-9.582.348-1.532.855-3.034 1.613-4.421.867-1.556 2.135-2.799 3.392-4.047 3.996-3.918 8.88-6.821 12.623-11.001 6.972-7.803 9.341-19.252 7.336-29.383-1.12-5.657-3.669-10.955-7.624-15.179-.613-.653-1.529.383-.926 1.032 7.14 7.639 9.227 18.888 6.999 28.899-1.189 5.326-3.628 10.359-7.396 14.341-3.749 3.968-8.499 6.802-12.346 10.67-2.372 2.384-3.997 4.833-4.866 8.118-.88 3.355-1.028 6.854-1.497 10.279-.12.879 1.235 1.164 1.36.274ZM338.284 699.745c-2.165-15.95-6.747-32.285-3.755-48.428.867-4.684 2.43-9.18 4.759-13.328.436-.77-.799-1.39-1.235-.62-8.386 14.983-6.005 32.722-3.312 48.9.751 4.519 1.556 9.029 2.173 13.567.108.871 1.488.784 1.37-.091Z" fill="#577575"/><path d="M344.219 689.715c8.976-12.979 10.521-30.183 7.292-45.319-.182-.87-1.493-.428-1.306.433 3.116 14.597 1.656 31.435-7.004 43.955-.51.721.507 1.652 1.018.931ZM343.259 675.857c-.971-6.398-.003-12.935 1.824-19.091.253-.85-1.106-1.124-1.359-.274-1.853 6.254-2.835 12.945-1.845 19.452.132.87 1.517.798 1.38-.087ZM331.423 696.424c-3.903-6.002-7.509-12.301-9.374-19.259-1.989-7.452-1.514-15.004-.12-22.515.971-5.238 2.373-10.693 6.032-14.73.604-.661-.428-1.587-1.032-.926-3.169 3.504-4.753 8.039-5.792 12.575-.955 4.219-1.662 8.563-1.831 12.893-.301 7.33 1.277 14.465 4.349 21.114 1.878 4.047 4.163 7.876 6.596 11.608.493.742 1.651-.012 1.172-.76Z" fill="#577575"/><path d="M325.541 695.847c-6.741-3.185-12.391-8.321-15.769-14.999-3.833-7.6-4.405-16.295-1.472-24.283 1.776-4.821 4.427-9.265 6.737-13.843.397-.79-.833-1.42-1.235-.62-4.298 8.514-9.57 16.923-8.747 26.869.633 7.638 3.798 14.89 9.087 20.45 3.061 3.219 6.766 5.771 10.774 7.671.815.372 1.435-.863.625-1.245Z" fill="#577575"/><path d="M315.37 676.128c-1.522-4.659-1.906-9.687-.021-14.305.337-.82-.898-1.44-1.235-.62-2.034 4.964-1.71 10.333-.06 15.353.276.855 1.597.418 1.316-.428ZM330.023 684.716c-1.619-5.747-2.249-11.69-2.583-17.632-.048-.889-1.428-.803-1.38.087.339 6.056.993 12.122 2.647 17.972.246.866 1.552.433 1.316-.427ZM328.113 653.602c.474-3.336.938-6.627 2.757-9.535.466-.756-.77-1.376-1.235-.62-1.883 3.011-2.382 6.446-2.876 9.895-.125.865 1.23 1.149 1.354.26ZM342.785 647.361c.34-3.094.997-6.127 1.327-9.226.095-.88-1.264-1.154-1.359-.274-.341 3.093-.997 6.127-1.328 9.226-.085.885 1.26 1.164 1.36.274ZM352.802 701.207c5.8-3.371 12.088-6.41 16.125-11.988 4.245-5.87 6.366-13.35 6.025-20.557-.198-4.192-1.186-8.312-2.704-12.214-.326-.831-1.631-.398-1.306.432 3.43 8.82 3.537 18.048-.381 26.717-1.775 3.931-4.36 7.283-7.8 9.897-3.336 2.53-7.107 4.446-10.714 6.555-.772.453-.012 1.602.755 1.158ZM370.587 696.349c2.56-2.636 5.174-5.28 7.151-8.406 2.022-3.189 3.06-6.761 3.099-10.538.011-.885-1.369-.798-1.38.087-.044 3.662-1.146 7.066-3.152 10.127-1.883 2.889-4.364 5.341-6.75 7.803-.619.642.403 1.563 1.032.927Z" fill="#577575"/><path d="M630.848 195.647c8.396-3.691 16.284-11.022 20.659-19.065 3.008-5.54 5.521-14.343-.663-18.827-5.423-3.922-13.098-.751-17.476 3.266-4.91 4.521-8.924 10.644-10.921 17.037-.985 3.15-1.534 6.712-.591 9.964.986 3.418 3.463 5.749 6.674 7.135 1.745.756 2.579-2.068.858-2.824-11.493-4.989-1.174-21.549 4.149-27.329 3.427-3.715 8.812-7.516 14.174-5.597 6.109 2.175 3.961 10.565 1.745 14.762-4.257 8.047-11.67 15.226-20.043 18.918-1.717.751-.307 3.334 1.435 2.56Z" fill="#fff"/><path d="M629.8 193.571c2.05-6.627 6.079-12.42 9.8-18.199 1.035-1.594-1.488-3.149-2.499-1.554-3.845 5.987-7.975 12.036-10.103 18.896-.569 1.796 2.256 2.677 2.802.857ZM610.698 183.796c-.572-5.548-1.309-11.077-2.377-16.569-1.21-6.273-2.613-13.233-6.131-18.677-1.241-1.919-2.906-3.803-5.223-4.34-2.55-.591-4.944.753-6.759 2.443-2.855 2.649-5.171 6.208-5.893 10.048-.832 4.402-.019 8.921 1.63 13.017 3.542 8.764 12.19 17.698 22.436 16.013 1.869-.3 1.151-3.168-.695-2.868-7.999 1.325-14.861-5.792-18.138-12.288-1.805-3.583-2.914-7.664-2.587-11.68.292-3.616 2.078-6.767 4.531-9.38.802-.848 1.698-1.693 2.771-2.181.669-.31 1.425-.406 1.917-.298 1.568.327 2.773 1.845 3.695 3.378 3.015 4.959 4.277 11.044 5.412 16.656a180.29 180.29 0 0 1 1.67 9.981c.175 1.3.35 2.6.5 3.922.055.567.133 1.11.188 1.677.056.496.093.874.111 1.062.206 1.866 3.147 1.973 2.942.084Z" fill="#fff"/><path d="M608.174 182.994c-3.401-5.465-5.654-11.508-8.338-17.305-.799-1.718-3.383-.309-2.584 1.409 2.684 5.797 4.937 11.84 8.337 17.305.991 1.605 3.598.197 2.585-1.409ZM625.222 155.258c4.904-5.956 10.16-12.68 11.468-20.505.796-4.779.635-10.692-1.928-14.955-1.102-1.821-2.756-3.281-4.94-3.508-2.513-.26-4.814 1.134-6.694 2.634-4.894 3.932-6.499 10.666-6.436 16.67.072 6.57 1.823 13.682 5.888 18.977 1.159 1.492 3.289-.542 2.13-2.011-2.975-3.851-4.381-9.047-4.904-13.817-.559-5.171-.041-10.923 3.051-15.284 1.939-2.746 6.565-6.38 9.163-2.492 2.282 3.384 2.375 8.377 1.933 12.296-.875 7.531-6.082 14.185-10.742 19.843-1.196 1.449.815 3.601 2.011 2.152Z" fill="#fff"/><path d="M625.722 152.444c.157-5.503.902-10.943 1.059-16.447.054-1.882-2.887-1.989-2.942-.084-.157 5.504-.901 10.944-1.059 16.447-.054 1.906 2.888 1.99 2.942.084Z" fill="#fff"/><path d="M831.328 368.603c4.152 21.835 18.391 47.075 41.513 52.676.63.156 1.207-.339 1.365-.932 1.626-6.34-.019-13.373-1.616-19.568-1.899-7.406-4.478-14.196-8.781-20.568-3.964-5.876-8.669-10.252-14.92-13.626-3.126-1.696-6.399-3.119-9.684-4.465a310.506 310.506 0 0 0-4.44-1.76c-1.042-.403-2.185-1.135-3.318-1.045-.668.053-1.071.628-1.06 1.244-.006 2.732.67 5.353.941 8.044.156 1.484 2.479 1.317 2.322-.185-.271-2.691-.947-5.312-.958-8.024l-1.06 1.244c.762-.06 2.529.996 3.359 1.323 1.389.544 2.78 1.106 4.152 1.67 2.958 1.223 5.903 2.522 8.717 4.056 6.018 3.262 10.451 7.51 14.25 13.193 3.969 5.931 6.321 12.216 8.119 19.069 1.578 5.953 3.248 12.835 1.681 18.964.461-.317.904-.614 1.365-.932-11.133-2.704-20.028-10.636-26.516-19.79-6.466-9.118-11.018-19.792-13.111-30.792-.282-1.437-2.606-1.27-2.32.204Z" fill="#5B7580"/><path d="M832.502 363.402c8.419 8.757 15.791 18.457 22.505 28.566 2.889 4.352 5.971 8.54 8.984 12.808 3.142 4.463 6.247 9.173 7.572 14.548.359 1.449 2.558.656 2.199-.793-1.291-5.172-4.184-9.805-7.183-14.13-3.191-4.609-6.538-9.075-9.64-13.747-6.839-10.286-14.35-20.087-22.913-29.001-1.059-1.094-2.562.691-1.524 1.749Z" fill="#5B7580"/><path d="M867.802 414.123c-9.282-8.8-18.921-17.609-25.189-28.931-.721-1.308-2.634.023-1.912 1.331 6.355 11.484 16.155 20.448 25.578 29.368 1.092 1.035 2.596-.731 1.523-1.768ZM864.791 393.713c-3.491-6.512-8.37-11.903-13.395-17.245-1.022-1.097-2.525.688-1.504 1.766 4.903 5.221 9.603 10.477 13.005 16.809.686 1.329 2.597-.02 1.894-1.33ZM843.488 380.446c-1.493-2.781-2.663-5.736-4.407-8.384-.342-.534-1.117-.641-1.63-.282-.533.36-.642 1.099-.282 1.631 1.744 2.648 2.915 5.604 4.408 8.384.306.556 1.152.619 1.63.282.547-.399.568-1.074.281-1.631ZM837.155 339.706c13.598 17.677 37.639 33.625 60.837 28.221.662-.146.822-.945.704-1.497-1.434-6.488-6.221-12.13-10.495-16.971-4.726-5.347-9.673-9.947-15.886-13.548-6.233-3.619-12.433-5.649-19.655-5.953-3.713-.153-7.436.051-11.151.347-1.653.132-3.324.283-4.976.434-1.168.112-2.525-.023-3.541.6-.392.237-.656.913-.433 1.363 1.249 2.538 3.08 4.637 4.596 7.004.811 1.263 2.724-.068 1.913-1.331-1.39-2.19-3.154-4.145-4.329-6.464-.15.461-.284.902-.434 1.362.642-.387 2.878-.248 3.788-.32 1.559-.143 3.118-.286 4.68-.392 3.345-.248 6.698-.403 10.055-.259 6.903.291 12.851 2.436 18.773 5.91 5.904 3.477 10.599 7.966 15.083 13.089 4.011 4.581 8.451 9.858 9.796 15.942.24-.505.463-.991.703-1.496-11.159 2.592-22.681-.53-32.596-5.782-9.877-5.235-18.718-12.724-25.518-21.572-.918-1.199-2.831.132-1.914 1.313Z" fill="#5B7580"/><path d="M835.592 334.407c11.809 4.146 23.051 9.628 33.902 15.834 4.467 2.562 9.078 4.832 13.609 7.258 4.55 2.443 9.214 5.139 12.614 9.095.968 1.12 2.883-.192 1.913-1.331-6.677-7.773-16.976-11.273-25.637-16.269-11.308-6.543-23.044-12.36-35.391-16.688-1.403-.487-2.414 1.614-1.01 2.101Z" fill="#5B7580"/><path d="M890.133 363.823c-12.141-3.634-24.663-7.106-35.257-14.305-1.226-.837-2.748.93-1.504 1.766 10.951 7.451 23.764 11.069 36.328 14.837 1.436.428 1.851-1.869.433-2.298ZM878.499 347.108c-6.059-4.249-12.794-6.892-19.706-9.409-1.405-.505-2.415 1.596-1.011 2.101 6.701 2.44 13.314 4.962 19.212 9.074 1.228.856 2.732-.91 1.505-1.766ZM853.511 344.871c-2.672-1.863-5.125-4.024-7.965-5.65-.529-.294-1.31-.008-1.565.537-.269.62-.014 1.235.536 1.566.704.392 1.217.726 1.83 1.144.653.453 1.289.926 1.925 1.399 1.233.931 2.43 1.883 3.698 2.773.495.354 1.229.407 1.634-.13.395-.443.443-1.251-.093-1.639Z" fill="#5B7580"/><path d="M314.328 345.75c-1.903 7.161-11.755 9.54-18.138 9.713-3.299.091-7.092-.239-9.874-2.171-1.053-.725-1.888-1.735-2.199-2.999-.352-1.463-.054-3.655.945-4.8 1.195-1.363 3.272-.091 4.497.592 1.638.908 3.246 2.01 5.043 2.566 3.705 1.141 8.141-1.342 9.084-5.125.926-3.732-1.879-7.44-5.42-8.386-3.844-1.032-8.117-.056-11.929.709-3.672.739-8.241 2.325-11.921.98-2.699-.998-4.681-3.237-5.872-5.804-.205-.45-1.261-2.314-.85-2.857.028-.027.989.138 1.253.202 3.382.9 6.668 3.22 10.279 3.005 3.384-.2 6.595-3.051 5.138-6.533-1.489-3.55-5.012-5.109-8.407-6.208-2.073-.67-4.636-1.444-5.656-3.573-.588-1.239-.888-4.72.819-5.426 1.775-.737 3.809 1.723 5.665 1.523 3.336-.356 1.671-6.252.427-7.736-1.538-1.808-3.912-2.73-6.082-3.545-2.523-.945-5.113-1.858-7.42-3.294-2.498-1.548-4.203-3.756-4.865-6.649-.552-2.411-.155-4.939.593-7.28.691-2.204 1.835-4.751 3.931-5.961 1.906-1.09 3.719-.528 4.704 1.329 1.368 2.564 1.598 7.26 4.845 8.308 1.499.481 3.437-.062 4.486-1.217 1.156-1.275 1.467-3.129 1.719-4.763.326-2.164.408-4.402 1.071-6.495.719-2.259 2.468-3.617 4.577-4.572 4.263-1.932 10.05-1.376 11.81 3.58 1.674 4.724-1.999 8.609-3.72 12.686-1.756 4.15-1.407 13.569 5.309 11.105 2.557-.939 4.819-2.656 7.09-4.129 2.142-1.397 4.61-3.172 7.226-3.481 2.277-.267 4.283 1.795 3.95 4.113-.363 2.539-3.214 4.432-5.124 5.798-4.534 3.273-12.132 6.866-12.746 13.195-.4 4.109 2.556 7.702 6.262 9.131 4.214 1.622 9.434.187 10.698-4.521.591-2.183.454-4.534 1.332-6.636.821-1.965 2.936-3.816 5.066-4.218 3.317-.649 4.753 3.215 4.97 5.843.313 3.736-1.135 7.214-4.096 9.503-2.246 1.723-6.73 4.106-5.893 7.587.931 3.902 5.046 3.224 8.02 3.002 1.994-.144 3.441.569 3.719 2.728.248 1.899-1.024 3.56-2.345 4.779-2.58 2.365-6.138 4.134-9.541 4.975-.96.233-.685 1.762.286 1.524 3.541-.868 7.155-2.636 9.934-5.016 2.607-2.227 4.731-6.239 1.985-9.288-2.549-2.842-6.535.398-9.34-1.414-4.201-2.7 3.093-6.749 4.871-8.244 2.734-2.276 4.041-5.877 3.978-9.377-.047-2.876-1.037-6.502-3.905-7.789-3.269-1.463-7.332 1.334-8.817 4.171-1.071 2.045-1.077 4.356-1.498 6.579-.55 2.891-2.533 4.87-5.589 4.98-4.579.149-9.503-3.958-8.453-8.823.686-3.149 3.62-5.439 6.077-7.264 2.765-2.042 5.786-3.784 8.387-6.049 1.846-1.611 3.727-3.802 3.25-6.428-.425-2.376-2.381-4.366-4.855-4.388-2.667-.024-5.221 1.601-7.396 2.959-2.466 1.554-4.835 3.391-7.511 4.567-2.192.955-3.821.66-4.399-1.862-.457-1.99-.48-4.163.175-6.102.735-2.197 2.071-4.123 3.103-6.191 1.992-3.975 2.224-8.909-1.401-12.068-3.252-2.844-8.198-2.517-11.883-.728-1.871.908-3.674 2.21-4.583 4.135-.904 1.908-1.108 4.095-1.36 6.155-.222 1.811-.24 4.691-1.795 5.967-1.627 1.354-3.426.51-4.275-1.125-1.405-2.697-1.662-7.504-5.164-8.455-4.677-1.273-7.666 4.162-8.734 7.799-1.375 4.678-1.074 9.917 2.606 13.502 1.848 1.795 4.214 2.927 6.576 3.909 2.549 1.057 5.413 1.768 7.695 3.353 1.136.781 2.036 1.841 2.301 3.237.115.604.359 2.299-.112 2.857-.506.603-1.543-.089-2.143-.361-2.13-.957-4.649-1.781-5.872.914-.842 1.865-.866 4.308.146 6.111 1.018 1.841 2.971 2.83 4.871 3.542 2 .747 4.192 1.125 5.942 2.377 1.366.971 2.936 2.448 3.275 4.166.438 2.178-2.125 3.559-3.981 3.704-1.866.151-3.848-.728-5.544-1.388-1.454-.557-6.897-3.52-7.482-.475-.378 1.97 1.321 4.62 2.393 6.119 1.398 1.973 3.371 3.543 5.691 4.298 3.743 1.219 8.143-.175 11.849-.931 3.895-.791 8.842-2.163 12.69-.528 1.96.834 3.528 2.958 3.529 5.114.007 2.593-2.215 4.619-4.613 5.179-3.968.924-6.884-3.155-10.578-3.821-3.578-.653-5.003 3.638-4.657 6.533.347 2.868 2.648 4.773 5.192 5.791 6.718 2.7 15.844 1.291 21.976-2.29 2.787-1.628 5.284-3.994 6.137-7.197.311-.975-1.144-1.477-1.405-.513Z" fill="#9D8A69"/></g></svg>